<svg width="75" height="50" viewBox="0 0 75 50" fill="none" xmlns="http://www.w3.org/2000/svg">
<line x1="0.879292" y1="7.52372" x2="13.8793" y2="31.5237" stroke="#1191CD" stroke-width="2"/>
<line x1="52.8682" y1="8.50386" x2="56.8682" y2="15.5039" stroke="#1191CD" stroke-width="2"/>
<line x1="59.9983" y1="1.15454" x2="74.0134" y2="1.15454" stroke="#1191CD" stroke-width="2"/>
<line x1="61" y1="8.06274" x2="61" y2="1.00008" stroke="#1191CD" stroke-width="2"/>
<line x1="45.8682" y1="7.50386" x2="53.8682" y2="21.5039" stroke="#1191CD" stroke-width="2"/>
<line x1="38.8779" y1="7.52115" x2="50.8779" y2="29.5211" stroke="#1191CD" stroke-width="2"/>
<line x1="30.8793" y1="7.52372" x2="43.8793" y2="31.5237" stroke="#1191CD" stroke-width="2"/>
<line x1="22.8793" y1="7.52372" x2="35.8793" y2="31.5237" stroke="#1191CD" stroke-width="2"/>
<line x1="15.8793" y1="7.52372" x2="28.8793" y2="31.5237" stroke="#1191CD" stroke-width="2"/>
<line x1="7.87929" y1="7.52372" x2="20.8793" y2="31.5237" stroke="#1191CD" stroke-width="2"/>
<line x1="60.9114" y1="7.41159" x2="46.9114" y2="38.4116" stroke="#1191CD" stroke-width="2"/>
<line x1="50" y1="32" x2="13" y2="32" stroke="#1191CD" stroke-width="2"/>
<line x1="12.9929" y1="38.5" x2="48.0072" y2="38.5" stroke="#1191CD" stroke-width="2"/>
<line x1="57" y1="16" x2="6" y2="16" stroke="#1191CD" stroke-width="2"/>
<line x1="53" y1="24" x2="10" y2="24" stroke="#1191CD" stroke-width="2"/>
<line x1="61" y1="8" x2="1.87213e-08" y2="8" stroke="#1191CD" stroke-width="2"/>
<circle cx="18.5" cy="44.5" r="5.5" fill="#1191CD"/>
<circle cx="40.5" cy="44.5" r="5.5" fill="#1191CD"/>
</svg>
